<svg width="36" height="35" viewBox="0 0 36 35" fill="none" xmlns="http://www.w3.org/2000/svg">
<g clip-path="url(#clip0_3113_3646)">
<g clip-path="url(#clip1_3113_3646)">
<path d="M15.6387 30.4792C9.44073 29.3854 4.70117 23.9896 4.70117 17.5C4.70117 10.2813 10.6074 4.375 17.8262 4.375C25.0449 4.375 30.9512 10.2813 30.9512 17.5C30.9512 23.9896 26.2116 29.3854 20.0137 30.4792L19.2845 29.8958H16.3679L15.6387 30.4792Z" fill="#0062E0"/>
<path d="M22.9304 21.1457L23.5137 17.4998H20.0137V14.9478C20.0137 13.9269 20.3782 13.1248 21.9824 13.1248H23.6595V9.7707C22.7116 9.62481 21.6907 9.479 20.7429 9.479C17.7532 9.479 15.6387 11.3019 15.6387 14.5832V17.4998H12.3574V21.1457H15.6387V30.4061C16.3679 30.5519 17.097 30.6248 17.8262 30.6248C18.5554 30.6248 19.2845 30.5519 20.0137 30.4061V21.1457H22.9304Z" fill="white"/>
</g>
</g>
<defs>
<clipPath id="clip0_3113_3646">
<rect width="35" height="35" fill="white" transform="translate(0.326172)"/>
</clipPath>
<clipPath id="clip1_3113_3646">
<rect width="35" height="35" fill="white" transform="translate(0.326172)"/>
</clipPath>
</defs>
</svg>
