<svg width="94" height="31" viewBox="0 0 94 31" fill="none" xmlns="http://www.w3.org/2000/svg">
<g clip-path="url(#clip0_3474_634)">
<g clip-path="url(#clip1_3474_634)">
<mask id="mask0_3474_634" style="mask-type:luminance" maskUnits="userSpaceOnUse" x="0" y="2" width="94" height="27">
<path d="M93.5 2.16016H0.5V28.1602H93.5V2.16016Z" fill="white"/>
</mask>
<g mask="url(#mask0_3474_634)">
<path fill-rule="evenodd" clip-rule="evenodd" d="M14.125 6.16016H0.5V23.2853H14.125V6.16016ZM3.79986 9.26034V20.6852L7.62489 20.66C8.77481 20.66 9.67472 20.3602 10.3 19.8104C10.9247 19.2606 11.2251 18.4351 11.2251 17.335C11.2479 16.7552 11.1001 16.1816 10.8 15.685C10.6576 15.4455 10.4658 15.2391 10.2373 15.0796C10.0089 14.92 9.74897 14.8111 9.47504 14.76C9.9242 14.5639 10.3003 14.2314 10.55 13.8097C10.7749 13.36 10.9001 12.86 10.9001 12.36C10.9001 11.3353 10.55 10.5601 9.90011 10.035C9.2502 9.51035 8.32513 9.26034 7.15004 9.26034H3.79986ZM5.87485 18.9099V15.6353H7.60027C7.97501 15.6101 8.32513 15.7851 8.54997 16.0849C8.77173 16.4626 8.87627 16.8977 8.8503 17.335C8.87743 17.756 8.75327 18.173 8.50018 18.5106C8.36386 18.6483 8.19963 18.7551 8.01855 18.824C7.83747 18.8929 7.64373 18.9222 7.45038 18.9099H5.87485ZM7.10026 14.0854H5.87485V11.035H7.00015C7.40005 11.0104 7.82511 11.1351 8.1249 11.4103C8.40007 11.7352 8.5248 12.1603 8.50018 12.5854C8.54997 12.9848 8.40007 13.3852 8.15007 13.685C8.01384 13.8229 7.84965 13.9299 7.66857 13.999C7.48748 14.0681 7.2937 14.0975 7.10026 14.0854ZM27.2004 23.2602H28.0002V6.16016H27.2004V23.2602ZM41.1001 23.2602H41.8999V6.16016H41.1001V23.2602ZM54.9751 23.2602H55.7749V6.16016H54.9751V23.2602ZM68.9 23.2602H69.6752V6.16016H68.9V23.2602ZM82.8002 23.2602H83.6V6.16016H82.8002V23.2602ZM22.8754 20.0352C23.4006 19.7349 23.8502 19.3104 24.15 18.7852H24.2004V14.6604H20.65V15.8103H22.6002V18.4351C22.4503 18.7103 22.2003 18.9603 21.9251 19.1353C21.5252 19.335 21.1002 19.4351 20.6505 19.41C20.3193 19.4203 19.99 19.3561 19.687 19.222C19.384 19.0879 19.115 18.8874 18.8999 18.6353C18.4754 18.1353 18.25 17.3853 18.25 16.4104V13.0099C18.25 12.0602 18.4502 11.3353 18.8501 10.8348C19.048 10.5902 19.3001 10.3952 19.5865 10.2651C19.8729 10.135 20.1857 10.0734 20.5001 10.0853C21.1751 10.0853 21.6998 10.285 22.0499 10.6351C22.4 10.9852 22.5751 11.535 22.6002 12.2599H24.1003L24.1254 12.2101C24.0751 11.1357 23.7501 10.3101 23.1254 9.73519C22.5001 9.16023 21.6254 8.85989 20.4503 8.85989C19.3004 8.83528 18.3753 9.21001 17.6756 9.93541C16.9754 10.6603 16.6252 11.6854 16.6252 13.0099V16.3853C16.6252 17.7349 17 18.7601 17.7254 19.4855C18.4502 20.2103 19.4251 20.585 20.6253 20.585C21.4 20.6102 22.2003 20.4351 22.8754 20.0352ZM34.5004 11.5104L35.8998 16.5105H33.0004L34.4501 11.5104H34.5004ZM36.2747 17.76H32.6508L31.8247 20.6354H30.2L33.6995 9.23463H35.2499L38.7248 20.6348H37.1L36.2747 17.76ZM48.4252 18.5352L45.7501 9.23518L43.6997 9.23463V20.6354H45.2752V16.26L45.15 11.8851H45.1751L47.9252 20.6348H48.9756L51.6999 11.86L51.7502 11.8851L51.625 16.26V20.6354H53.1999V9.23518H51.1501L48.475 18.5352H48.4252ZM61.4999 20.6354H63.0749V9.23463H61.4999V20.6354ZM78.5999 20.6354H80.2V9.23518H78.5999V17.6845H78.5501L74.2251 9.23463H72.6501V20.6354H74.2251V12.1603H74.2754L78.5999 20.6354ZM92.2249 20.1102C92.7501 19.8104 93.1752 19.3853 93.5001 18.8602V14.7107H89.9749V15.8601H91.9251V18.4597C91.7752 18.7354 91.5252 18.9849 91.2501 19.16C90.8502 19.3602 90.4251 19.4603 89.9749 19.4351C89.6438 19.4454 89.3146 19.381 89.0118 19.2469C88.709 19.1127 88.4402 18.9121 88.2254 18.6599C87.8003 18.1605 87.5749 17.4099 87.5749 16.4351V13.0351C87.5749 12.0853 87.7751 11.3599 88.175 10.8599C88.3728 10.6153 88.625 10.4201 88.9114 10.2899C89.1978 10.1597 89.5106 10.0981 89.825 10.1099C90.5 10.1099 91.0252 10.285 91.3753 10.6603C91.7249 11.035 91.9 11.5602 91.9251 12.2851H93.4252L93.4503 12.2353C93.4 11.1603 93.075 10.3348 92.4503 9.76035C91.825 9.18539 90.9503 8.88561 89.7752 8.88561C88.6499 8.88561 87.7254 9.26034 87.0251 9.98519C86.3249 10.71 85.9753 11.7352 85.9753 13.0602V16.4854C85.9753 17.835 86.3501 18.8602 87.0749 19.585C87.8249 20.3099 88.7752 20.66 89.9749 20.66C90.75 20.6852 91.5498 20.5101 92.2249 20.1102Z" fill="#FFCD00"/>
</g>
</g>
</g>
<defs>
<clipPath id="clip0_3474_634">
<rect width="93" height="30" fill="white" transform="translate(0.5 0.160156)"/>
</clipPath>
<clipPath id="clip1_3474_634">
<rect width="93" height="26" fill="white" transform="translate(0.5 2.16016)"/>
</clipPath>
</defs>
</svg>
