<svg width="36" height="22" viewBox="0 0 36 22" fill="none" xmlns="http://www.w3.org/2000/svg">
<g clip-path="url(#clip0_3474_796)">
<path opacity="0.2" d="M3 5.27036C3 4.49456 3.59159 3.84677 4.36419 3.77652L34.3643 1.04925C35.2426 0.969394 36 1.66104 36 2.54309V14.3888C36 15.1353 35.451 15.7682 34.712 15.8737L3 20.4005V5.27036Z" fill="#111315"/>
<path d="M0 18.9004V17.4004L3 18.1504V21.9004L0.75 19.6504L0 18.9004Z" fill="#C7443B"/>
<path d="M0 5.28037C0 4.50024 0.597993 3.85035 1.37543 3.78556L34.3755 1.03556C35.25 0.962681 36 1.65282 36 2.53038V14.52C36 15.3001 35.402 15.95 34.6245 16.0148L0 18.9002V5.28037Z" fill="url(#paint0_linear_3474_796)"/>
<path d="M7.56929 11.5383L13.5616 10.9208L13.6655 9.35392L7.67322 9.97138L7.56929 11.5383ZM12.781 6.27235L12.2215 14.7745L13.8927 14.6023L14.476 6.09769L12.781 6.27235ZM7.33779 6.83324L6.77832 15.3354L8.44947 15.1632L9.02088 6.65981L7.33779 6.83324ZM17.2245 10.0367C17.2496 9.65614 17.3325 9.28972 17.4731 8.93744C17.6217 8.58436 17.8142 8.26696 18.0506 7.98524C18.2949 7.7027 18.5808 7.4722 18.9081 7.29368C19.2356 7.11518 19.5942 7.00585 19.9842 6.96566C20.3742 6.92549 20.7165 6.97063 21.0116 7.10108C21.3056 7.22357 21.5498 7.40752 21.7439 7.65292C21.9372 7.89035 22.079 8.17331 22.1691 8.5018C22.2585 8.82233 22.2933 9.16054 22.2737 9.51643C22.2566 9.89618 22.1736 10.2626 22.0251 10.6157C21.8765 10.9688 21.6801 11.2866 21.4358 11.5691C21.1985 11.8429 20.9162 12.069 20.5889 12.2475C20.2614 12.426 19.9026 12.5354 19.5128 12.5755C19.1307 12.6149 18.7928 12.5733 18.4986 12.4508C18.2037 12.3204 17.9556 12.1368 17.7543 11.9002C17.561 11.6628 17.4195 11.3838 17.3303 11.0633C17.2481 10.734 17.2128 10.3918 17.2245 10.0367ZM15.4458 10.22C15.4262 10.8091 15.5034 11.3641 15.6777 11.885C15.8592 12.3971 16.1304 12.8436 16.4913 13.2247C16.8515 13.5977 17.2866 13.8786 17.7966 14.0673C18.3066 14.256 18.876 14.318 19.5047 14.2532C20.1413 14.1876 20.7302 14.0103 21.2715 13.7213C21.8127 13.4323 22.2857 13.0659 22.6902 12.6221C23.094 12.1703 23.4117 11.6631 23.6433 11.1004C23.8829 10.5369 24.0191 9.9478 24.0524 9.33316C24.0792 8.73526 23.9979 8.18066 23.8085 7.66939C23.6271 7.15729 23.3526 6.71909 22.9854 6.35482C22.6253 5.98177 22.191 5.70884 21.6827 5.53604C21.1734 5.35529 20.6085 5.2969 19.9877 5.36086C19.359 5.42563 18.7737 5.59855 18.2316 5.87959C17.6967 6.15185 17.2269 6.50989 16.8224 6.95369C16.4177 7.39751 16.0952 7.89719 15.8549 8.45276C15.6146 9.00832 15.4782 9.5974 15.4458 10.22ZM24.3155 6.64L26.5118 6.41368L26.0444 13.3501L27.7274 13.1767L28.1949 6.24025L30.3674 6.01639L30.4832 4.44824L24.4313 5.07187L24.3155 6.64Z" fill="white"/>
</g>
<defs>
<linearGradient id="paint0_linear_3474_796" x1="2.25" y1="3.90018" x2="39" y2="18.9002" gradientUnits="userSpaceOnUse">
<stop stop-color="#FF654F"/>
<stop offset="1" stop-color="#FF0960"/>
</linearGradient>
<clipPath id="clip0_3474_796">
<rect width="36" height="21" fill="white" transform="translate(0 0.900391)"/>
</clipPath>
</defs>
</svg>
