<svg width="36" height="35" viewBox="0 0 36 35" fill="none" xmlns="http://www.w3.org/2000/svg">
<g clip-path="url(#clip0_3113_3651)">
<g clip-path="url(#clip1_3113_3651)">
<path d="M5.42578 13.3108C5.42578 10.2908 5.42578 8.78077 6.02283 7.63142C6.52596 6.66285 7.31569 5.87313 8.28425 5.37C9.4336 4.77295 10.9436 4.77295 13.9636 4.77295H22.3425C25.3625 4.77295 26.8725 4.77295 28.0219 5.37C28.9904 5.87313 29.7801 6.66285 30.2833 7.63142C30.8803 8.78077 30.8803 10.2908 30.8803 13.3108V21.6896C30.8803 24.7097 30.8803 26.2197 30.2833 27.369C29.7801 28.3376 28.9904 29.1273 28.0219 29.6304C26.8725 30.2275 25.3625 30.2275 22.3425 30.2275H13.9636C10.9436 30.2275 9.4336 30.2275 8.28425 29.6304C7.31569 29.1273 6.52596 28.3376 6.02283 27.369C5.42578 26.2197 5.42578 24.7097 5.42578 21.6896V13.3108Z" fill="url(#paint0_radial_3113_3651)"/>
<path d="M5.42578 13.3108C5.42578 10.2908 5.42578 8.78077 6.02283 7.63142C6.52596 6.66285 7.31569 5.87313 8.28425 5.37C9.4336 4.77295 10.9436 4.77295 13.9636 4.77295H22.3425C25.3625 4.77295 26.8725 4.77295 28.0219 5.37C28.9904 5.87313 29.7801 6.66285 30.2833 7.63142C30.8803 8.78077 30.8803 10.2908 30.8803 13.3108V21.6896C30.8803 24.7097 30.8803 26.2197 30.2833 27.369C29.7801 28.3376 28.9904 29.1273 28.0219 29.6304C26.8725 30.2275 25.3625 30.2275 22.3425 30.2275H13.9636C10.9436 30.2275 9.4336 30.2275 8.28425 29.6304C7.31569 29.1273 6.52596 28.3376 6.02283 27.369C5.42578 26.2197 5.42578 24.7097 5.42578 21.6896V13.3108Z" fill="url(#paint1_radial_3113_3651)"/>
<path d="M18.1395 8.24414C15.6257 8.24414 15.3103 8.25512 14.323 8.30006C13.3376 8.34516 12.665 8.50115 12.0765 8.73008C11.4677 8.96649 10.9513 9.28277 10.4369 9.79742C9.92199 10.3119 9.60572 10.8283 9.3686 11.4369C9.13911 12.0257 8.98288 12.6984 8.93857 13.6835C8.89443 14.6708 8.88281 14.9865 8.88281 17.5003C8.88281 20.0142 8.89403 20.3287 8.93873 21.316C8.98407 22.3014 9.14006 22.974 9.36876 23.5625C9.6054 24.1714 9.9216 24.6878 10.4363 25.2023C10.9506 25.7171 11.4669 26.0342 12.0754 26.2706C12.6642 26.4994 13.337 26.6555 14.3222 26.7006C15.3095 26.7455 15.6248 26.7565 18.1383 26.7565C20.6523 26.7565 20.9668 26.7455 21.9541 26.7006C22.9395 26.6555 23.6129 26.4994 24.2018 26.2706C24.8104 26.0342 25.326 25.7171 25.8402 25.2023C26.3551 24.6878 26.6713 24.1714 26.9085 23.5628C27.1361 22.974 27.2923 22.3012 27.3386 21.3162C27.3829 20.3288 27.3945 20.0142 27.3945 17.5003C27.3945 14.9865 27.3829 14.671 27.3386 13.6837C27.2923 12.6983 27.1361 12.0257 26.9085 11.4371C26.6713 10.8283 26.3551 10.3119 25.8402 9.79742C25.3254 9.28253 24.8105 8.96625 24.2012 8.73008C23.6111 8.50115 22.9381 8.34516 21.9528 8.30006C20.9654 8.25512 20.6512 8.24414 18.1367 8.24414H18.1395ZM17.3091 9.91213C17.5557 9.91181 17.8306 9.91213 18.1395 9.91213C20.6108 9.91213 20.9037 9.92104 21.8797 9.96535C22.7821 10.0066 23.2719 10.1574 23.5982 10.2842C24.0301 10.4519 24.3381 10.6525 24.6618 10.9764C24.9858 11.3004 25.1864 11.6089 25.3545 12.0409C25.4812 12.3668 25.6321 12.8566 25.6733 13.7591C25.7176 14.7348 25.7273 15.0279 25.7273 17.4982C25.7273 19.9684 25.7176 20.2615 25.6733 21.2373C25.632 22.1398 25.4812 22.6296 25.3545 22.9555C25.1868 23.3874 24.9858 23.695 24.6618 24.0188C24.3379 24.3428 24.0303 24.5433 23.5982 24.7111C23.2723 24.8384 22.7821 24.9888 21.8797 25.0301C20.904 25.0744 20.6108 25.0841 18.1395 25.0841C15.668 25.0841 15.3751 25.0744 14.3994 25.0301C13.4969 24.9884 13.0071 24.8376 12.6806 24.7109C12.2487 24.5432 11.9401 24.3426 11.6162 24.0186C11.2922 23.6947 11.0917 23.3869 10.9236 22.9547C10.7968 22.6288 10.6459 22.139 10.6048 21.2365C10.5604 20.2608 10.5516 19.9677 10.5516 17.4959C10.5516 15.0241 10.5604 14.7325 10.6048 13.7568C10.6461 12.8543 10.7968 12.3644 10.9236 12.0382C11.0913 11.6062 11.2922 11.2977 11.6162 10.9737C11.9401 10.6498 12.2487 10.4492 12.6806 10.2811C13.0069 10.1538 13.4969 10.0034 14.3994 9.96192C15.2532 9.92335 15.5841 9.91181 17.3091 9.90982V9.91213ZM23.0802 11.4491C22.467 11.4491 21.9696 11.946 21.9696 12.5594C21.9696 13.1726 22.467 13.6702 23.0802 13.6702C23.6935 13.6702 24.1909 13.1726 24.1909 12.5594C24.1909 11.9462 23.6935 11.4491 23.0802 11.4491ZM18.1395 12.7469C15.5145 12.7469 13.3862 14.8752 13.3862 17.5003C13.3862 20.1254 15.5145 22.2528 18.1395 22.2528C20.7645 22.2528 22.892 20.1254 22.892 17.5003C22.892 14.8752 20.7645 12.7469 18.1395 12.7469ZM18.1395 14.4149C19.8434 14.4149 21.2248 15.7962 21.2248 17.5003C21.2248 19.2042 19.8434 20.5857 18.1395 20.5857C16.4355 20.5857 15.0542 19.2042 15.0542 17.5003C15.0542 15.7962 16.4355 14.4149 18.1395 14.4149Z" fill="white"/>
</g>
</g>
<defs>
<radialGradient id="paint0_radial_3113_3651" cx="0" cy="0" r="1" gradientUnits="userSpaceOnUse" gradientTransform="translate(12.1871 32.1881) rotate(-90) scale(25.2274 23.4634)">
<stop stop-color="#FFDD55"/>
<stop offset="0.1" stop-color="#FFDD55"/>
<stop offset="0.5" stop-color="#FF543E"/>
<stop offset="1" stop-color="#C837AB"/>
</radialGradient>
<radialGradient id="paint1_radial_3113_3651" cx="0" cy="0" r="1" gradientUnits="userSpaceOnUse" gradientTransform="translate(1.16201 6.60666) rotate(78.6806) scale(11.2768 46.4831)">
<stop stop-color="#3771C8"/>
<stop offset="0.128" stop-color="#3771C8"/>
<stop offset="1" stop-color="#6600FF" stop-opacity="0"/>
</radialGradient>
<clipPath id="clip0_3113_3651">
<rect width="35" height="35" fill="white" transform="translate(0.65332)"/>
</clipPath>
<clipPath id="clip1_3113_3651">
<rect width="35" height="35" fill="white" transform="translate(0.65332)"/>
</clipPath>
</defs>
</svg>
