<svg width="35" height="36" viewBox="0 0 35 36" fill="none" xmlns="http://www.w3.org/2000/svg">
<path d="M25.5322 9.94385C25.7373 9.94385 25.9082 9.87549 26.0449 9.73877C26.1816 9.60205 26.25 9.43115 26.25 9.22607V8.47412C26.25 8.26904 26.1816 8.09814 26.0449 7.96143C25.9082 7.82471 25.7373 7.75635 25.5322 7.75635H0.717773C0.512695 7.75635 0.341797 7.82471 0.205078 7.96143C0.0683594 8.09814 0 8.26904 0 8.47412V9.22607C0 9.43115 0.0683594 9.60205 0.205078 9.73877C0.341797 9.87549 0.512695 9.94385 0.717773 9.94385H25.5322ZM18.9697 17.9761C18.9697 18.1812 18.8957 18.3521 18.7476 18.4888C18.5994 18.6255 18.4229 18.6938 18.2178 18.6938H0.717773C0.512695 18.6938 0.341797 18.6255 0.205078 18.4888C0.0683594 18.3521 0 18.1812 0 17.9761V17.2241C0 17.019 0.0683594 16.8481 0.205078 16.7114C0.341797 16.5747 0.512695 16.5063 0.717773 16.5063H18.2178C18.4229 16.5063 18.5994 16.5747 18.7476 16.7114C18.8957 16.8481 18.9697 17.019 18.9697 17.2241V17.9761ZM26.25 26.7261C26.25 26.9312 26.1816 27.1021 26.0449 27.2388C25.9082 27.3755 25.7373 27.4438 25.5322 27.4438H0.717773C0.512695 27.4438 0.341797 27.3755 0.205078 27.2388C0.0683594 27.1021 0 26.9312 0 26.7261V25.9741C0 25.769 0.0683594 25.5981 0.205078 25.4614C0.341797 25.3247 0.512695 25.2563 0.717773 25.2563H25.5322C25.7373 25.2563 25.9082 25.3247 26.0449 25.4614C26.1816 25.5981 26.25 25.769 26.25 25.9741V26.7261Z" fill="white"/>
</svg>
