<svg width="94" height="31" viewBox="0 0 94 31" fill="none" xmlns="http://www.w3.org/2000/svg">
<g clip-path="url(#clip0_3887_507)">
<g clip-path="url(#clip1_3887_507)">
<mask id="mask0_3887_507" style="mask-type:luminance" maskUnits="userSpaceOnUse" x="0" y="2" width="94" height="27">
<path d="M93.5 2.16016H0.5V28.1602H93.5V2.16016Z" fill="white"/>
</mask>
<g mask="url(#mask0_3887_507)">
<path fill-rule="evenodd" clip-rule="evenodd" d="M0.81563 7.91821C0.710674 7.67443 0.60632 7.43205 0.5 7.19274C4.18213 5.2262 8.62602 6.13484 11.0671 9.35433C11.3043 11.1135 10.9681 12.9023 10.1085 14.4554C3.54166 14.2499 2.13128 10.974 0.81563 7.91821ZM2.2376 18.7179C3.48816 16.7983 5.49276 15.2421 9.76004 15.0316C10.684 14.9858 11.7119 15.0022 12.8636 15.0932C12.3617 22.131 5.67651 25.046 0.5 22.2814C0.607881 22.039 0.713678 21.7935 0.820078 21.5466C1.23156 20.5918 1.65266 19.6156 2.2376 18.7179ZM25.512 11.929H28.2783L30.6986 19.0405L32.9464 11.929H35.6271L31.9093 22.131H29.4237L25.512 11.929ZM35.2037 17.0514C35.2037 13.9396 37.3653 11.7351 40.4558 11.7351C43.5254 11.7351 45.687 13.9396 45.687 17.0514C45.687 20.121 43.482 22.3254 40.3916 22.3254C37.3213 22.3254 35.2037 20.1639 35.2037 17.0514ZM42.9623 17.1162V17.03C42.9623 15.0855 42.0108 13.9176 40.4552 13.9176C38.8775 13.9176 37.9261 15.0855 37.9261 17.03V17.1162C37.9261 19.0179 38.8549 20.1424 40.4118 20.1424C41.9894 20.1424 42.9623 19.0191 42.9623 17.1162ZM46.9043 7.58498H49.6064V22.131H46.9043V7.58498ZM51.1483 18.0463V11.929H53.8285V17.8946C53.8285 19.2564 54.4767 20.0562 55.6874 20.0562C57.092 20.0562 57.6765 18.8675 57.6765 17.1168V11.9302H60.3567V22.1322H57.6765V20.6842C57.136 21.7433 56.2059 22.3278 54.8882 22.3278C52.5743 22.3254 51.1483 20.6824 51.1483 18.0463ZM62.8061 19.4289V14.0906H61.3575V11.929H62.8061V10.0058L65.4208 8.53525V11.929H67.4313V14.0906H65.3994V19.1702C65.3994 19.6673 65.6366 19.8838 66.1338 19.9046H67.3231V22.131H65.2483C63.2806 22.0228 62.8489 21.1153 62.8061 19.4289ZM68.6486 7.82225H71.4363V10.4376H68.6486V7.82225ZM68.6926 11.929H71.3947V22.131H68.6926V11.929ZM72.612 17.0514C72.612 13.9396 74.7736 11.7351 77.8646 11.7351C80.9337 11.7351 83.0952 13.9396 83.0952 17.0514C83.0952 20.121 80.8908 22.3254 77.7998 22.3254C74.7308 22.3254 72.612 20.1639 72.612 17.0514ZM80.3723 17.1156V17.03C80.3723 15.0855 79.4208 13.9176 77.8646 13.9176C76.287 13.9176 75.3355 15.0855 75.3355 17.03V17.1162C75.3355 19.0179 76.2644 20.1424 77.8206 20.1424C79.3988 20.1424 80.3723 19.0185 80.3723 17.1156ZM84.2917 11.929H86.9718V13.5941C87.5124 12.4047 88.5067 11.7131 89.9552 11.7131C92.1816 11.7131 93.5 13.2046 93.5 16.0143V22.131H90.8199V16.1654C90.8199 14.7394 90.2793 14.0038 89.0264 14.0038C87.7502 14.0038 86.973 15.0415 86.973 16.9432V22.1304H84.2923L84.2917 11.929ZM10.1085 14.4554C10.941 14.4815 11.855 14.4599 12.8636 14.3802C12.7185 12.3494 12.0578 10.6623 11.0677 9.35528C11.3049 11.1144 10.9687 12.9033 10.1091 14.4563L10.1085 14.4554ZM15.6263 7.77899H26.0222V10.135H18.3279V13.5716H23.4503V15.9276H18.3279V19.7751H26.2606V22.1317H15.6263V7.77899Z" fill="white"/>
</g>
</g>
</g>
<defs>
<clipPath id="clip0_3887_507">
<rect width="93" height="30" fill="white" transform="translate(0.5 0.160156)"/>
</clipPath>
<clipPath id="clip1_3887_507">
<rect width="93" height="26" fill="white" transform="translate(0.5 2.16016)"/>
</clipPath>
</defs>
</svg>
