<svg width="94" height="31" viewBox="0 0 94 31" fill="none" xmlns="http://www.w3.org/2000/svg">
<g clip-path="url(#clip0_3887_203)">
<g clip-path="url(#clip1_3887_203)">
<g clip-path="url(#clip2_3887_203)">
<mask id="mask0_3887_203" style="mask-type:luminance" maskUnits="userSpaceOnUse" x="0" y="9" width="94" height="13">
<path d="M93.3431 9.16016H0.5V22.0002H93.3431V9.16016Z" fill="white"/>
</mask>
<g mask="url(#mask0_3887_203)">
<path d="M51.9836 10.4042C51.3435 10.0677 50.6414 9.87842 49.836 9.87842H42.6084V21.9505H45.4789V18.0807H49.485C50.3523 18.0807 51.1163 17.8914 51.7978 17.5339C52.4792 17.1764 53.0368 16.6506 53.4498 16.0196C53.8629 15.3677 54.0693 14.6526 54.0693 13.8324C54.0693 13.0752 53.8835 12.4022 53.4912 11.8133C53.1401 11.2034 52.6238 10.7407 51.9836 10.4042ZM50.7653 14.7157C50.5795 14.947 50.311 15.1574 50.0012 15.3046C49.6914 15.4518 49.3404 15.5149 48.9481 15.5149H45.4375V12.4653H48.9481C49.3404 12.4653 49.6914 12.5284 50.0012 12.6336C50.311 12.7387 50.5795 12.907 50.7653 13.1173C50.9512 13.3276 51.0544 13.58 51.0544 13.8744C51.0544 14.1899 50.9512 14.4633 50.7653 14.7157Z" fill="white"/>
<path d="M58.4749 9.87842H55.6045V21.9505H66.1362V19.3636H58.4749V9.87842Z" fill="white"/>
<path d="M73.4722 9.87842L67.5869 21.9505H70.4986L71.5518 19.8053H78.0359L79.0891 21.9505H82.0628L76.1774 9.87842H73.4722ZM72.6049 17.597L73.9678 14.7998C74.0711 14.5685 74.195 14.3371 74.2982 14.1268C74.4014 13.8955 74.5047 13.6641 74.5873 13.4538C74.6492 13.3066 74.7112 13.1594 74.7732 13.0332C74.8145 13.1594 74.8764 13.2856 74.9384 13.4328C75.021 13.6431 75.1242 13.8534 75.2275 14.0848C75.3307 14.2951 75.434 14.5474 75.5579 14.7998L76.9414 17.618H72.6049V17.597Z" fill="white"/>
<path d="M93.2816 9.87842H89.9361L86.1572 14.9891L82.275 9.87842H78.6611L84.6911 17.4498V21.9505H87.5824V17.3026L93.2816 9.87842Z" fill="white"/>
<path d="M28.2502 9.88086H25.2504L19.8457 21.9492H30.4377V19.362H24.0069L28.2502 9.88086Z" fill="white"/>
<path d="M13.8566 16.9999H20.3977L21.4558 14.6197H14.9289L15.9372 12.3809H22.4569L23.5791 9.88086H14.0169L8.60156 21.9492H18.1638L19.2896 19.4491H12.7556L13.8566 16.9999Z" fill="white"/>
<path d="M9.20009 9.88086L4.98185 19.4273H3.27888V9.89538H0.560547V21.9492H6.78101L12.1999 9.88086H9.20009Z" fill="white"/>
<path d="M37.9585 19.3614V12.4673L35.0799 14.3977V19.3614H31.8984V21.9485H41.1543V19.3614H37.9585Z" fill="white"/>
<path d="M31.4785 11.6295C34.7491 12.8306 38.3296 12.8306 41.6037 11.6295L40.7415 9.19482C38.0268 10.189 35.0555 10.189 32.3371 9.19482L31.4785 11.6295Z" fill="#FF87C8"/>
</g>
</g>
</g>
</g>
<defs>
<clipPath id="clip0_3887_203">
<rect width="93" height="30" fill="white" transform="translate(0.5 0.160156)"/>
</clipPath>
<clipPath id="clip1_3887_203">
<rect width="93" height="30" fill="white" transform="translate(0.5 0.160156)"/>
</clipPath>
<clipPath id="clip2_3887_203">
<rect width="93" height="26" fill="white" transform="translate(0.5 2.16016)"/>
</clipPath>
</defs>
</svg>
