<svg width="94" height="31" viewBox="0 0 94 31" fill="none" xmlns="http://www.w3.org/2000/svg">
<g clip-path="url(#clip0_3887_240)">
<g clip-path="url(#clip1_3887_240)">
<path d="M15.9116 27.7224C22.7663 27.7224 28.3231 22.0001 28.3231 14.9413C28.3231 7.88246 22.7663 2.16016 15.9116 2.16016C9.05685 2.16016 3.5 7.88246 3.5 14.9413C3.5 22.0001 9.05685 27.7224 15.9116 27.7224Z" fill="white"/>
<path d="M25.1315 18.9093L21.1599 14.8193L25.1315 10.7293C25.6281 10.218 25.6281 9.41467 25.1315 8.90342L21.609 5.27602C21.1126 4.76477 20.3324 4.76477 19.836 5.27602L15.8643 9.36598L11.8926 5.27602C11.3961 4.76477 10.6159 4.76477 10.1195 5.27602L6.59696 8.90342C6.10049 9.41467 6.10049 10.218 6.59696 10.7293L10.5687 14.8193L6.59696 18.9093C6.10049 19.4205 6.10049 20.2238 6.59696 20.7351L10.1195 24.3625C10.6159 24.8737 11.3961 24.8737 11.8926 24.3625L15.8643 20.2726L19.836 24.3625C20.3324 24.8737 21.1126 24.8737 21.609 24.3625L25.1315 20.7351C25.6281 20.2238 25.6281 19.4205 25.1315 18.9093Z" fill="#FF003A"/>
<path d="M84.5889 2.16016C81.3264 2.16016 78.6787 4.8868 78.6787 8.24641C78.6787 11.606 81.3264 14.3327 84.5889 14.3327C87.8516 14.3327 90.4994 11.606 90.4994 8.24641C90.4994 4.8868 87.8516 2.16016 84.5889 2.16016ZM87.3076 9.46365C87.4495 9.60973 87.4495 9.85317 87.3076 9.99925L86.2674 11.0704C86.1256 11.2165 85.8891 11.2165 85.7473 11.0704L84.5889 9.87752L83.4305 11.0704C83.2886 11.2165 83.0523 11.2165 82.9104 11.0704L81.8702 9.99925C81.7284 9.85317 81.7284 9.60973 81.8702 9.46365L83.0285 8.27075L81.8702 7.07785C81.7284 6.93178 81.7284 6.68833 81.8702 6.54226L82.9104 5.47108C83.0523 5.32501 83.2886 5.32501 83.4305 5.47108L84.5889 6.66398L85.7473 5.47108C85.8891 5.32501 86.1256 5.32501 86.2674 5.47108L87.3076 6.54226C87.4495 6.68833 87.4495 6.93178 87.3076 7.07785L86.1492 8.27075L87.3076 9.46365Z" fill="white"/>
<path d="M47.5671 17.2529H50.8768C51.0187 17.2529 51.1605 17.3503 51.2078 17.4964L54.8958 27.6483C54.9903 27.8917 54.8012 28.1351 54.5649 28.1351H51.4915C51.3497 28.1351 51.2078 28.0377 51.1605 27.8917L50.8532 27.0152C50.8059 26.8692 50.6641 26.7718 50.5222 26.7718H47.9217C47.7798 26.7718 47.638 26.8692 47.5907 27.0152L47.2834 27.8917C47.2361 28.0377 47.0942 28.1351 46.9524 28.1351H43.9027C43.6663 28.1351 43.4772 27.8917 43.5717 27.6483L47.2361 17.472C47.2834 17.3503 47.4253 17.2529 47.5671 17.2529ZM49.9312 24.2886C50.1676 24.2886 50.3331 24.0452 50.2622 23.8261L49.2456 20.5882H49.1747L48.1818 23.8261C48.1108 24.0695 48.2763 24.2886 48.5127 24.2886H49.9312Z" fill="white"/>
<path d="M56.4562 17.2529H58.8912C59.0095 17.2529 59.1041 17.3016 59.1749 17.399L62.0828 21.4402C62.2246 21.635 62.5083 21.635 62.6502 21.4402L65.558 17.399C65.6289 17.3016 65.7235 17.2529 65.8417 17.2529H68.2531C68.4423 17.2529 68.6078 17.4233 68.6078 17.6181V27.7699C68.6078 27.9647 68.4423 28.1351 68.2531 28.1351H65.3926C65.2034 28.1351 65.0379 27.9647 65.0379 27.7699V25.6276L65.0615 23.3878H65.0143L63.4539 25.5789C63.3831 25.6763 63.2885 25.725 63.1702 25.725H61.5154C61.3972 25.725 61.3027 25.6763 61.2317 25.5789L59.6714 23.3635L59.6241 23.3878L59.6477 25.6276V27.7699C59.6477 27.9647 59.4823 28.1351 59.2932 28.1351H56.4562C56.2671 28.1351 56.1016 27.9647 56.1016 27.7699V17.6181C56.1016 17.399 56.2435 17.2529 56.4562 17.2529Z" fill="white"/>
<path d="M87.0243 21.5644H83.6435C83.6435 21.5644 82.9106 21.6131 82.9106 20.9558C82.9106 20.2985 83.6435 20.2985 83.6435 20.2985H90.1449C90.3341 20.2985 90.4998 20.128 90.4998 19.9333V17.5962C90.4998 17.4014 90.3341 17.231 90.1449 17.231H83.4308C81.705 17.231 79.9319 17.231 79.9319 20.8341C79.9319 24.0963 81.6341 23.8042 83.3835 23.8042H86.7642C86.7642 23.8042 87.5207 23.8042 87.5207 24.4128C87.5207 25.0214 86.7878 25.0457 86.7878 25.0457H78.3007C78.3007 25.0457 78.3007 25.0457 78.2771 25.0457H72.7687V24.1693C72.7687 23.9746 72.9341 23.8042 73.1232 23.8042H76.5276C76.7167 23.8042 76.8822 23.6338 76.8822 23.439V21.8809C76.8822 21.6862 76.7167 21.5158 76.5276 21.5158H72.7687V20.6637C72.7687 20.4689 72.9341 20.2985 73.1232 20.2985H78.2771C78.4662 20.2985 78.6316 20.128 78.6316 19.9333V17.5962C78.6316 17.4014 78.4662 17.231 78.2771 17.231H70.1681C69.979 17.231 69.8135 17.4014 69.8135 17.5962V27.748C69.8135 27.9428 69.979 28.1133 70.1681 28.1133H87.0006C88.7971 28.1133 90.4762 28.1133 90.4762 24.5102C90.4998 21.2723 88.7029 21.5644 87.0243 21.5644Z" fill="white"/>
<path d="M62.9814 14.0644L60.9955 10.6561C60.901 10.5101 60.7591 10.4127 60.5937 10.4127H59.5297C59.2698 10.4127 59.0569 10.6318 59.0569 10.8996V13.7967C59.0569 14.0644 58.8442 14.2836 58.5841 14.2836H55.8654C55.6053 14.2836 55.3926 14.0644 55.3926 13.7967V2.67098C55.3926 2.40319 55.6053 2.18408 55.8654 2.18408H62.6268C65.3455 2.18408 66.7167 4.25341 66.7167 6.29839C66.7167 7.71039 66.0783 9.1224 64.8017 9.8771C64.7781 9.90144 64.7544 9.95013 64.7781 9.97447L66.7876 13.5776C66.9767 13.894 66.7403 14.3079 66.362 14.3079H63.3833C63.2178 14.3079 63.076 14.2349 62.9814 14.0644ZM59.0569 7.56433C59.0569 7.58867 59.0806 7.61302 59.1042 7.61302H61.7757C62.674 7.61302 63.1232 6.95571 63.1232 6.29839C63.1232 5.64107 62.674 4.98375 61.7757 4.98375H59.5297C59.2698 4.98375 59.0569 5.20285 59.0569 5.47065V7.56433Z" fill="white"/>
<path d="M76.8825 8.07599C76.8588 8.05165 76.8588 8.05165 76.8588 8.02731C76.8588 8.00296 76.8588 8.00296 76.8825 7.97862C77.4499 7.36999 77.7808 6.39619 77.7808 5.42239C77.7808 3.1583 76.3623 2.16016 74.9439 2.16016H68.4426C68.1116 2.16016 67.8516 2.42795 67.8516 2.76878V13.7241C67.8516 14.0649 68.1116 14.3327 68.4426 14.3327H74.9439C77.0952 14.3327 78.0645 12.5312 78.0645 10.8757C78.0645 9.73145 77.6154 8.70896 76.8825 8.07599ZM73.6673 7.27261H71.114V5.30066C71.114 5.1059 71.2795 4.93549 71.4686 4.93549H73.6673C74.4947 4.93549 74.873 5.51977 74.873 6.10405C74.873 6.68833 74.4947 7.27261 73.6673 7.27261ZM71.4686 9.41497H73.6673C74.4947 9.41497 74.873 9.99925 74.873 10.5835C74.873 11.1435 74.4947 11.7521 73.6673 11.7521H71.114V9.78014C71.114 9.58539 71.2795 9.41497 71.4686 9.41497Z" fill="white"/>
<path d="M42.5548 21.6112H38.725C38.4177 21.6112 38.1812 21.8546 38.1812 22.1711V23.5344C38.1812 23.8509 38.4177 24.0944 38.725 24.0944H40.0016C40.0489 24.0944 40.0962 24.1431 40.0962 24.1918V24.8977C40.0962 24.9222 40.0725 24.9708 40.0489 24.9952C39.6943 25.1899 39.2924 25.2873 38.7723 25.2873H38.7014C37.5902 25.2873 37.0228 25.263 36.5028 25.2386C35.4152 25.1656 34.6115 24.1187 34.6115 22.7554V22.7311C34.6115 21.5625 35.3207 20.5887 36.4082 20.2723C36.6682 20.1992 40.8527 20.1749 42.4366 20.1992C42.6967 20.1992 42.8858 19.9801 42.8858 19.7366C42.8858 19.0306 42.8858 17.7647 42.8858 17.7647C42.8858 17.4969 42.6731 17.3022 42.4366 17.3022C40.829 17.3022 36.4791 17.3022 36.3845 17.3265C33.5003 17.5456 31.4199 19.8341 31.4199 22.7311V22.7554C31.4199 25.9446 32.9802 27.9165 35.6989 28.1357C35.8172 28.1357 36.7155 28.16 38.0866 28.16C38.6304 28.16 39.056 28.16 39.1269 28.16C39.1742 28.16 39.2214 28.16 39.2924 28.16C40.7345 28.16 42.9568 26.6749 43.1222 26.2367C43.1459 26.1881 43.1222 22.2199 43.1222 22.2199C43.0986 21.8546 42.8622 21.6112 42.5548 21.6112Z" fill="white"/>
<path d="M41.0894 2.16016H32.0822C31.8221 2.16016 31.6094 2.37926 31.6094 2.64706V5.42239C31.6094 5.69018 31.8221 5.90929 32.0822 5.90929H34.2808C34.5408 5.90929 34.7536 6.12839 34.7536 6.39619V13.8458C34.7536 14.1136 34.9664 14.3327 35.2265 14.3327H37.9215C38.1816 14.3327 38.3943 14.1136 38.3943 13.8458V6.42054C38.3943 6.15274 38.6071 5.93363 38.8672 5.93363H41.0658C41.3258 5.93363 41.5386 5.71453 41.5386 5.44674V2.64706C41.5622 2.37926 41.3495 2.16016 41.0894 2.16016Z" fill="white"/>
<path d="M50.9475 2.18408C50.6874 2.18408 50.4747 2.40319 50.4747 2.67098V10.1206C50.4747 10.6318 50.2855 10.8266 49.7654 10.8266H47.1885C46.6684 10.8266 46.4793 10.6318 46.4793 10.1206V2.67098C46.4793 2.40319 46.2666 2.18408 46.0065 2.18408H43.2169C42.9568 2.18408 42.7441 2.40319 42.7441 2.67098V10.6074C42.7441 11.8977 43.0514 12.8472 43.6424 13.4315C44.2334 14.0401 45.2027 14.3322 46.4793 14.3322H50.4273C51.704 14.3322 52.6733 14.0158 53.2643 13.4315C53.8553 12.8229 54.1627 11.8734 54.1627 10.6074V2.67098C54.1627 2.40319 53.9499 2.18408 53.6899 2.18408H50.9475Z" fill="white"/>
</g>
</g>
<defs>
<clipPath id="clip0_3887_240">
<rect width="93" height="30" fill="white" transform="translate(0.5 0.160156)"/>
</clipPath>
<clipPath id="clip1_3887_240">
<rect width="93" height="26" fill="white" transform="translate(0.5 2.16016)"/>
</clipPath>
</defs>
</svg>
