<svg width="94" height="31" viewBox="0 0 94 31" fill="none" xmlns="http://www.w3.org/2000/svg">
<g clip-path="url(#clip0_3887_569)">
<g clip-path="url(#clip1_3887_569)">
<mask id="mask0_3887_569" style="mask-type:luminance" maskUnits="userSpaceOnUse" x="0" y="2" width="94" height="27">
<path d="M93.5 2.16016H0.5V28.1602H93.5V2.16016Z" fill="white"/>
</mask>
<g mask="url(#mask0_3887_569)">
<path d="M38.4486 11.4187C38.4486 11.8317 38.938 12.0367 39.4334 12.0367C39.896 12.0367 40.3854 11.8317 40.3854 11.4707C40.3854 10.896 39.6931 10.87 39.2394 10.844C38.1024 10.7747 36.9653 10.3357 36.9653 9.08235C36.9653 7.82899 38.1113 7.11279 39.3827 7.11279C40.5824 7.11279 41.8 7.77412 41.7732 9.08235H40.2541C40.2452 8.66938 39.8453 8.49899 39.4095 8.49899C39.0454 8.49899 38.565 8.59429 38.565 9.05058C38.565 9.45489 38.9201 9.55019 39.517 9.61084C40.8421 9.72347 41.997 10.0238 41.997 11.4851C41.997 12.7501 40.7257 13.4114 39.4573 13.4114C38.1889 13.4114 36.8818 12.776 36.9086 11.4245H38.4545L38.4486 11.4187Z" fill="white"/>
<path d="M48.4858 7.23145H49.0647V13.2672H47.4382V10.489L46.1132 11.829H45.9281L44.6031 10.489V13.2672H42.9766V7.23145H43.5555L46.0266 9.83635L48.4888 7.23145H48.4858Z" fill="white"/>
<path d="M51.6753 12.5192L51.3202 13.2671H49.6221V13.0534L52.4752 7.19092H53.2213L56.0475 13.0534V13.2671H54.3673L54.0032 12.5192H51.6753ZM52.2006 11.2022H53.4899L52.8422 9.74962L52.2036 11.2022H52.2006Z" fill="white"/>
<path d="M61.8906 13.0363V13.2587H60.1656L59.1002 11.3757H58.2466V13.2587H56.6201V7.24018C57.5453 7.24018 58.4406 7.23152 59.3568 7.24018C60.858 7.24018 61.5951 8.31449 61.5951 9.37147C61.5862 10.0588 61.2847 10.7201 60.67 11.1244L61.8876 13.0334L61.8906 13.0363ZM59.3508 10.0963C59.8045 10.0963 60.0253 9.71802 60.0253 9.3397C60.0253 8.96138 59.8134 8.60906 59.3508 8.60906H58.2227V10.0963H59.3508Z" fill="white"/>
<path d="M62.21 8.62367V7.24902H66.8298V8.62367H65.3108V13.2675H63.738V8.62367H62.21Z" fill="white"/>
<path d="M68.9007 11.4187C68.9007 11.8317 69.3902 12.0367 69.8856 12.0367C70.3481 12.0367 70.8376 11.8317 70.8376 11.4707C70.8376 10.896 70.1452 10.87 69.6916 10.844C68.5545 10.7747 67.4175 10.3357 67.4175 9.08235C67.4175 7.82899 68.5635 7.11279 69.8348 7.11279C71.0346 7.11279 72.2522 7.77412 72.2253 9.08235H70.7063C70.6973 8.66938 70.2974 8.49899 69.8617 8.49899C69.4976 8.49899 69.0171 8.59429 69.0171 9.05058C69.0171 9.45489 69.3722 9.55019 69.9691 9.61084C71.2942 9.72347 72.4492 10.0238 72.4492 11.4851C72.4492 12.7501 71.1778 13.4114 69.9094 13.4114C68.6411 13.4114 67.3339 12.776 67.3608 11.4245H68.9067L68.9007 11.4187Z" fill="white"/>
<path d="M76.281 13.3798C74.6366 13.3798 73.0996 12.3488 73.0996 10.2579C73.0996 8.16709 74.6903 7.12744 76.3078 7.12744C77.9254 7.12744 79.4803 8.17575 79.4803 10.2579C79.4803 12.0976 78.1641 13.3798 76.281 13.3798ZM76.2899 11.8925C77.0629 11.8925 77.8538 11.3323 77.8538 10.2579C77.8538 9.18364 77.0808 8.62338 76.3078 8.62338C75.5349 8.62338 74.7261 9.15764 74.7261 10.2579C74.7261 11.3582 75.4901 11.8925 76.2899 11.8925Z" fill="white"/>
<path d="M84.1005 11.3239H82.1099V13.2675H80.4834V7.24902H84.3661V8.615H82.1099V9.94634H84.1005V11.321V11.3239Z" fill="white"/>
<path d="M84.8379 8.62367V7.24902H89.4578V8.62367H87.9387V13.2675H86.3659V8.62367H84.8379Z" fill="white"/>
<path d="M40.09 16.6429C41.3076 16.6429 42.4984 17.1945 42.8536 18.4479H42.1254C41.7971 17.5786 41.0241 17.2956 40.09 17.2956C38.6426 17.2956 37.7353 18.3612 37.7353 19.7272C37.7353 21.0932 38.6426 22.1589 40.09 22.1589C41.3703 22.1589 42.2835 21.4975 42.3999 20.1893H40.1885V19.5799H43.0863C43.1132 20.1315 43.0505 20.6629 42.8476 21.1452C42.385 22.2542 41.3464 22.8289 40.093 22.8289C38.3352 22.8289 36.9922 21.5899 36.9922 19.7243C36.9922 17.8587 38.359 16.6372 40.093 16.6372L40.09 16.6429Z" fill="white"/>
<path d="M44.8713 21.2613L44.1431 22.7486H43.3701V22.6533L46.268 16.7041H46.6052L49.4762 22.6533V22.7486H48.7122L47.984 21.2613H44.8743H44.8713ZM45.119 20.6433H47.7303L46.4232 17.8333L45.116 20.6433H45.119Z" fill="white"/>
<path d="M55.7965 16.7212H56.08V22.7483H55.3339V18.4078L53.2896 21.1253H53.1732L51.1289 18.4078V22.7483H50.3828V16.7212H50.6753L53.2329 20.0828L55.7906 16.7212H55.7965Z" fill="white"/>
<path d="M60.1332 22.1709V22.7456H57.2354V22.1709H58.3097V17.2961H57.3069V16.73H60.0616V17.2961H59.0588V22.1709H60.1332Z" fill="white"/>
<path d="M61.9635 18.2002L62.0262 19.8521V22.7487H61.2891V16.7129H61.5457L65.5985 21.2701L65.518 19.5431V16.7245H66.2641V22.7602H66.0253L61.9665 18.2031L61.9635 18.2002Z" fill="white"/>
<path d="M70.632 16.6429C71.8496 16.6429 73.0404 17.1945 73.3955 18.4479H72.6674C72.3391 17.5786 71.5661 17.2956 70.632 17.2956C69.1846 17.2956 68.2773 18.3612 68.2773 19.7272C68.2773 21.0932 69.1846 22.1589 70.632 22.1589C71.9123 22.1589 72.8255 21.4975 72.9419 20.1893H70.7305V19.5799H73.6283C73.6552 20.1315 73.5925 20.6629 73.3896 21.1452C72.927 22.2542 71.8884 22.8289 70.635 22.8289C68.8772 22.8289 67.5342 21.5899 67.5342 19.7243C67.5342 17.8587 68.901 16.6372 70.635 16.6372L70.632 16.6429Z" fill="white"/>
<path d="M16.7017 13.7811C15.7012 13.3747 14.9461 12.459 14.9461 11.3401C14.9461 9.90381 16.1495 8.73926 17.6338 8.73926C18.0043 8.73926 18.3582 8.8032 18.6768 8.94249C20.8265 9.88554 27.1671 12.9408 27.1671 12.9408C28.2572 13.5505 28.9298 14.6762 28.9298 15.8956V20.1405C28.9298 21.0881 28.4083 21.9627 27.5588 22.4376L18.2261 27.4292C17.3789 27.9019 16.3336 27.9019 15.4865 27.4292L6.1986 22.143C5.97679 22.0289 5.82812 21.8051 5.82812 21.5448C5.82812 21.3986 5.87768 21.2616 5.95791 21.1497L5.93903 21.1771C6.63987 20.1496 7.89052 19.5217 9.245 19.6541C9.77121 19.7043 10.2644 19.8573 10.6844 20.1085C11.5717 20.6405 14.1225 22.4079 16.7937 22.4079C19.2762 22.4079 20.8737 21.0607 20.8737 21.0607C21.7775 20.3825 22.3603 19.0787 22.3603 17.8867V17.8913C22.3603 16.7701 21.65 15.8111 20.6401 15.4115L16.7017 13.7788V13.7811Z" fill="#F0013A"/>
<path d="M15.4798 11.2395C15.4798 11.2395 15.4798 11.2462 15.4775 11.2551C15.4775 11.2507 15.4775 11.2462 15.4798 11.2418C15.4798 11.2418 15.4798 11.2395 15.4798 11.2373V11.2395Z" fill="url(#paint0_linear_3887_569)"/>
<path d="M15.4418 11.2166C15.4418 11.2166 15.4418 11.2233 15.4395 11.2322C15.4395 11.2277 15.4395 11.2233 15.4418 11.2188C15.4418 11.2188 15.4418 11.2166 15.4418 11.2144V11.2166Z" fill="url(#paint1_linear_3887_569)"/>
<path d="M18.2237 27.4271C17.3766 27.8998 16.3312 27.8998 15.4841 27.4271L6.1986 22.1433C5.97679 22.0291 5.82812 21.8053 5.82812 21.545C5.82812 21.3989 5.87768 21.2619 5.95791 21.15L5.93903 21.1774C6.63987 20.1498 7.89052 19.5219 9.245 19.6543C9.77121 19.7046 10.2644 19.8575 10.6844 20.1087C11.5717 20.6408 14.1225 22.4081 16.7937 22.4081C19.2762 22.4081 20.8737 21.0609 20.8737 21.0609C21.7775 20.3827 22.3603 19.0789 22.3603 17.8869V17.8915C22.3603 16.7703 21.65 15.8113 20.6401 15.4117L16.7017 13.779C15.7012 13.3726 14.9461 12.4569 14.9461 11.338C14.9461 10.6142 15.2505 9.9611 15.7413 9.49072C15.3354 9.88347 15.0853 10.4315 15.0853 11.0298C15.0853 11.9637 15.6941 12.7606 16.5483 13.0689L22.1338 15.1149C24.2575 15.8844 25.7701 17.8687 25.7701 20.1932C25.7701 22.2346 24.6044 24.0134 22.8794 24.9382L18.2237 27.4248V27.4271Z" fill="url(#paint2_linear_3887_569)"/>
<path d="M27.5119 7.41491C27.7172 7.54735 27.8517 7.7734 27.8517 8.02915C27.8517 8.12962 27.8305 8.22552 27.7928 8.31458C27.3468 9.42661 26.3722 9.91983 26.3439 9.93353C25.643 10.2783 24.8077 10.3149 24.0738 10.0728C23.8355 9.99518 23.583 9.86959 23.3801 9.72574C22.6486 9.20968 20.034 7.48798 17.4359 7.48798C14.9936 7.48798 13.4197 8.76898 13.4197 8.76898C12.5702 9.38322 12.0133 10.5409 11.9638 11.6301L11.959 11.8585C11.959 12.9226 12.6599 13.836 13.6533 14.215L17.5752 15.7723C18.5592 16.1605 19.3048 17.0282 19.3048 18.0923C19.3048 19.4578 18.1203 20.5629 16.6596 20.5629C16.2962 20.5629 15.9446 20.5013 15.6331 20.3711C13.5165 19.476 7.275 16.5715 7.275 16.5715C6.20369 15.9938 5.54297 14.9229 5.54297 13.7652V9.80109C5.54297 8.85347 6.06447 7.97891 6.91397 7.50396L16.2467 2.51466C17.0938 2.04199 18.1391 2.04199 18.9863 2.51466L27.5119 7.41491Z" fill="#E90531"/>
<path d="M27.5119 7.41491C27.7172 7.54735 27.8517 7.7734 27.8517 8.02915C27.8517 8.12962 27.8305 8.22552 27.7928 8.31458C27.3468 9.42661 26.3722 9.91983 26.3439 9.93353C25.643 10.2783 24.8077 10.3149 24.0738 10.0728C23.8355 9.99518 23.583 9.86959 23.3801 9.72574C22.6486 9.20968 20.034 7.48798 17.4359 7.48798C14.9936 7.48798 13.4197 8.76898 13.4197 8.76898C12.5702 9.38322 12.0133 10.5409 11.9638 11.6301L11.959 11.8585C11.959 12.9226 12.6599 13.836 13.6533 14.215L17.5752 15.7723C18.5592 16.1605 19.3048 17.0282 19.3048 18.0923C19.3048 19.4578 18.1203 20.5629 16.6596 20.5629C16.2962 20.5629 15.9446 20.5013 15.6331 20.3711C13.5165 19.476 7.275 16.5715 7.275 16.5715C6.20369 15.9938 5.54297 14.9229 5.54297 13.7652V9.80109C5.54297 8.85347 6.06447 7.97891 6.91397 7.50396L16.2467 2.51466C17.0938 2.04199 18.1391 2.04199 18.9863 2.51466L27.5119 7.41491Z" fill="url(#paint3_linear_3887_569)"/>
<path d="M27.7715 8.36715C27.2665 9.16635 26.358 9.70067 25.3198 9.70067C24.659 9.70067 24.0502 9.48146 23.5665 9.1184C21.7094 7.75062 19.2199 6.67969 16.6761 6.67969H16.6714C12.9572 6.67969 9.84473 10.0477 9.84473 13.6419C9.84473 15.7587 11.2039 18.1517 12.8982 19.1632C12.8982 19.1632 12.8982 19.1632 12.9006 19.1632C13.9955 19.6588 14.9984 20.1063 15.6331 20.3758C15.9446 20.5082 16.2962 20.5676 16.6596 20.5676C18.1203 20.5676 19.3048 19.4601 19.3048 18.0969C19.3048 17.2337 18.8305 16.4985 18.1203 16.0464C18.0636 16.0144 18.0094 15.9824 17.9551 15.9527C17.8395 15.8888 17.7167 15.8317 17.594 15.7838L16.5746 15.3819L13.6557 14.2151C12.6622 13.836 11.9614 12.9295 11.9614 11.8631L11.9661 11.6347C12.0157 10.5455 12.5726 9.38784 13.4221 8.7736C13.4221 8.7736 14.996 7.49259 17.4383 7.49259C17.8442 7.49259 18.25 7.53369 18.6512 7.60676C20.8103 7.99951 22.7736 9.29422 23.3919 9.73036C23.5948 9.87421 23.8473 9.99752 24.0856 10.0774C24.2225 10.1231 24.3617 10.1574 24.5033 10.1825C25.1215 10.2921 25.7775 10.2144 26.3462 9.93586C26.3722 9.92216 27.3208 9.44493 27.7739 8.36486L27.7715 8.36715Z" fill="url(#paint4_linear_3887_569)"/>
<path d="M27.7715 8.36715C27.2665 9.16635 26.358 9.70067 25.3198 9.70067C24.659 9.70067 24.0502 9.48146 23.5665 9.1184C21.7094 7.75062 19.2199 6.67969 16.6761 6.67969H16.6714C12.9572 6.67969 9.84473 10.0477 9.84473 13.6419C9.84473 15.7587 11.2039 18.1517 12.8982 19.1632C12.8982 19.1632 12.8982 19.1632 12.9006 19.1632C13.9955 19.6588 14.9984 20.1063 15.6331 20.3758C15.9446 20.5082 16.2962 20.5676 16.6596 20.5676C18.1203 20.5676 19.3048 19.4601 19.3048 18.0969C19.3048 17.2337 18.8305 16.4985 18.1203 16.0464C18.0636 16.0144 18.0094 15.9824 17.9551 15.9527C17.8395 15.8888 17.7167 15.8317 17.594 15.7838L16.5746 15.3819L13.6557 14.2151C12.6622 13.836 11.9614 12.9295 11.9614 11.8631L11.9661 11.6347C12.0157 10.5455 12.5726 9.38784 13.4221 8.7736C13.4221 8.7736 14.996 7.49259 17.4383 7.49259C17.8442 7.49259 18.25 7.53369 18.6512 7.60676C20.8103 7.99951 22.7736 9.29422 23.3919 9.73036C23.5948 9.87421 23.8473 9.99752 24.0856 10.0774C24.2225 10.1231 24.3617 10.1574 24.5033 10.1825C25.1215 10.2921 25.7775 10.2144 26.3462 9.93586C26.3722 9.92216 27.3208 9.44493 27.7739 8.36486L27.7715 8.36715Z" fill="url(#paint5_linear_3887_569)"/>
<path d="M27.7715 8.36715C27.2665 9.16635 26.358 9.70067 25.3198 9.70067C24.659 9.70067 24.0502 9.48146 23.5665 9.1184C21.7094 7.75062 19.2199 6.67969 16.6761 6.67969H16.6714C12.9572 6.67969 9.84473 10.0477 9.84473 13.6419C9.84473 15.7587 11.2039 18.1517 12.8982 19.1632C12.8982 19.1632 12.8982 19.1632 12.9006 19.1632C13.9955 19.6588 14.9984 20.1063 15.6331 20.3758C15.9446 20.5082 16.2962 20.5676 16.6596 20.5676C18.1203 20.5676 19.3048 19.4601 19.3048 18.0969C19.3048 17.2337 18.8305 16.4985 18.1203 16.0464C18.0636 16.0144 18.0094 15.9824 17.9551 15.9527C17.8395 15.8888 17.7167 15.8317 17.594 15.7838L16.5746 15.3819L13.6557 14.2151C12.6622 13.836 11.9614 12.9295 11.9614 11.8631L11.9661 11.6347C12.0157 10.5455 12.5726 9.38784 13.4221 8.7736C13.4221 8.7736 14.996 7.49259 17.4383 7.49259C17.8442 7.49259 18.25 7.53369 18.6512 7.60676C20.8103 7.99951 22.7736 9.29422 23.3919 9.73036C23.5948 9.87421 23.8473 9.99752 24.0856 10.0774C24.2225 10.1231 24.3617 10.1574 24.5033 10.1825C25.1215 10.2921 25.7775 10.2144 26.3462 9.93586C26.3722 9.92216 27.3208 9.44493 27.7739 8.36486L27.7715 8.36715Z" fill="url(#paint6_linear_3887_569)"/>
</g>
</g>
</g>
<defs>
<linearGradient id="paint0_linear_3887_569" x1="16.4774" y1="22.544" x2="15.5322" y2="11.0801" gradientUnits="userSpaceOnUse">
<stop stop-color="#067993" stop-opacity="0"/>
<stop offset="0.34" stop-color="#096675" stop-opacity="0.23"/>
<stop offset="0.91" stop-color="#133325" stop-opacity="0.84"/>
<stop offset="1" stop-color="#152B17" stop-opacity="0.95"/>
</linearGradient>
<linearGradient id="paint1_linear_3887_569" x1="16.4393" y1="22.521" x2="15.494" y2="11.0571" gradientUnits="userSpaceOnUse">
<stop stop-color="#067993" stop-opacity="0"/>
<stop offset="0.34" stop-color="#096675" stop-opacity="0.23"/>
<stop offset="0.91" stop-color="#133325" stop-opacity="0.84"/>
<stop offset="1" stop-color="#152B17" stop-opacity="0.95"/>
</linearGradient>
<linearGradient id="paint2_linear_3887_569" x1="9.32995" y1="31.3843" x2="17.8521" y2="17.5645" gradientUnits="userSpaceOnUse">
<stop stop-color="#F0002F" stop-opacity="0"/>
<stop offset="0.46" stop-color="#EA042D" stop-opacity="0.9"/>
<stop offset="0.59" stop-color="#DC0426" stop-opacity="0.92"/>
<stop offset="0.82" stop-color="#B80513" stop-opacity="0.96"/>
<stop offset="1" stop-color="#940701"/>
</linearGradient>
<linearGradient id="paint3_linear_3887_569" x1="16.6974" y1="-0.716394" x2="16.6974" y2="22.4673" gradientUnits="userSpaceOnUse">
<stop stop-color="#E90531" stop-opacity="0"/>
<stop offset="0.51" stop-color="#E7042B" stop-opacity="0"/>
<stop offset="0.64" stop-color="#D30420" stop-opacity="0.24"/>
<stop offset="0.93" stop-color="#A10607" stop-opacity="0.84"/>
<stop offset="1" stop-color="#940701"/>
</linearGradient>
<linearGradient id="paint4_linear_3887_569" x1="11.3361" y1="24.2621" x2="19.4068" y2="8.03951" gradientUnits="userSpaceOnUse">
<stop stop-color="#F0002F" stop-opacity="0"/>
<stop offset="0.31" stop-color="#EA042D" stop-opacity="0.9"/>
<stop offset="0.51" stop-color="#E7042B" stop-opacity="0.94"/>
<stop offset="0.77" stop-color="#BC0515" stop-opacity="0.97"/>
<stop offset="1" stop-color="#940701"/>
</linearGradient>
<linearGradient id="paint5_linear_3887_569" x1="18.906" y1="30.9047" x2="18.8221" y2="12.418" gradientUnits="userSpaceOnUse">
<stop stop-color="#F0002F" stop-opacity="0"/>
<stop offset="0.46" stop-color="#EA042D" stop-opacity="0.9"/>
<stop offset="0.59" stop-color="#DC0426" stop-opacity="0.92"/>
<stop offset="0.82" stop-color="#B80513" stop-opacity="0.96"/>
<stop offset="1" stop-color="#940701"/>
</linearGradient>
<linearGradient id="paint6_linear_3887_569" x1="17.6436" y1="12.3449" x2="1.40138" y2="3.20807" gradientUnits="userSpaceOnUse">
<stop stop-color="#F0002F" stop-opacity="0"/>
<stop offset="0.51" stop-color="#E7042B" stop-opacity="0"/>
<stop offset="0.66" stop-color="#C70724" stop-opacity="0.29"/>
<stop offset="1" stop-color="#7A0F14"/>
</linearGradient>
<clipPath id="clip0_3887_569">
<rect width="93" height="30" fill="white" transform="translate(0.5 0.160156)"/>
</clipPath>
<clipPath id="clip1_3887_569">
<rect width="93" height="26" fill="white" transform="translate(0.5 2.16016)"/>
</clipPath>
</defs>
</svg>
