<svg width="94" height="31" viewBox="0 0 94 31" fill="none" xmlns="http://www.w3.org/2000/svg">
<g clip-path="url(#clip0_3887_615)">
<g clip-path="url(#clip1_3887_615)">
<path fill-rule="evenodd" clip-rule="evenodd" d="M82.9882 22.1843H86.5251V18.6474H90.062V15.1105H93.5001V4.5957H82.9882V8.13261H75.8098V4.5957H65.2979V15.1076H68.7359V18.6445H72.2729V22.1814H75.8098V25.7183H82.9882V22.1814V22.1843ZM87.5365 9.85311V6.3133H91.0734V9.8502H87.5365V13.3871H83.9996V9.8502H87.5365V9.85311Z" fill="#ED1B2E"/>
<path d="M0.5 22.2165V19.4584H3.25803V12.5648H0.5V11.1873H1.87756V9.80969H3.25512V8.43213H6.01316V19.4643H8.77119V22.2223H0.5V22.2165Z" fill="white"/>
<path d="M11.0348 22.2164V20.8389H9.65723V9.80676H11.0348V8.4292H19.3089V9.80676H20.6864V20.8389H19.3089V22.2164H11.0348ZM17.9284 19.4584V11.1843H12.4124V19.4584H17.9284Z" fill="white"/>
<path d="M22.9479 22.2164V20.8389H21.5674V9.80676H22.9479V8.4292H31.2219V9.80676H32.5995V20.8389H31.2219V22.2164H22.9479ZM29.8444 19.4584V11.1843H24.3283V19.4584H29.8444Z" fill="white"/>
<path d="M43.6638 22.0827V16.5696H38.1506V22.0827H35.3955V8.3042H38.1506V13.8174H43.6638V8.3042H46.4189V22.0856H43.6638V22.0827Z" fill="white"/>
<path d="M47.3027 22.0827V8.3042H56.9486V9.68176H58.3261V15.1949H56.9486V16.5725H50.0579V22.0856H47.3027V22.0827ZM55.571 13.8144V11.0593H50.0579V13.8144H55.571Z" fill="white"/>
</g>
</g>
<defs>
<clipPath id="clip0_3887_615">
<rect width="93" height="30" fill="white" transform="translate(0.5 0.160156)"/>
</clipPath>
<clipPath id="clip1_3887_615">
<rect width="93" height="21.1284" fill="white" transform="translate(0.5 4.5957)"/>
</clipPath>
</defs>
</svg>
