<svg width="94" height="31" viewBox="0 0 94 31" fill="none" xmlns="http://www.w3.org/2000/svg">
<g clip-path="url(#clip0_3887_657)">
<g clip-path="url(#clip1_3887_657)">
<g clip-path="url(#clip2_3887_657)">
<mask id="mask0_3887_657" style="mask-type:luminance" maskUnits="userSpaceOnUse" x="0" y="2" width="94" height="27">
<path d="M93.5 2.16016H0.5V28.1602H93.5V2.16016Z" fill="white"/>
</mask>
<g mask="url(#mask0_3887_657)">
<path d="M54.1557 13.5566L54.0236 14.3811C53.5148 13.8077 52.7309 13.3955 51.5029 13.3955C49.3051 13.3955 47.7461 15.0677 47.7461 17.4259C47.7461 19.784 49.3051 21.4729 51.5029 21.4729C52.6417 21.4729 53.5061 21.0854 54.0236 20.4873L54.1557 21.3111H56.0994V13.5566H54.1557ZM51.9311 19.6156C50.695 19.6156 49.8306 18.6459 49.8306 17.4179C49.8306 16.1898 50.695 15.2535 51.9311 15.2535C53.1671 15.2535 54.0388 16.1825 54.0388 17.4179C54.0388 18.6532 53.1504 19.6156 51.9311 19.6156Z" fill="white"/>
<path d="M62.9797 15.059V13.5566H56.986V15.2854H60.6128L56.9453 19.8174V21.3118H63.2221V19.5829H59.3122L62.9797 15.059Z" fill="white"/>
<path d="M69.7476 10.1602V14.4954C69.2323 13.8495 68.4317 13.3958 67.1891 13.3958C64.9914 13.3958 63.4316 15.0681 63.4316 17.4255C63.4316 19.7829 64.9914 21.4726 67.1891 21.4726C68.3272 21.4726 69.1902 21.085 69.7084 20.4891L69.8398 21.3129H71.7857V10.1602H69.7476ZM67.6159 19.6145C66.3806 19.6145 65.5147 18.647 65.5147 17.4168C65.5147 16.1865 66.3806 15.2532 67.6159 15.2532C68.8512 15.2532 69.7237 16.1822 69.7237 17.4168C69.7237 18.6514 68.8374 19.6145 67.6159 19.6145Z" fill="white"/>
<path d="M78.9833 13.5566L78.8498 14.3811C78.341 13.8077 77.5571 13.3955 76.329 13.3955C74.1313 13.3955 72.5723 15.0677 72.5723 17.4259C72.5723 19.784 74.1313 21.4729 76.329 21.4729C77.4678 21.4729 78.3323 21.0854 78.8498 20.4873L78.9833 21.3111H80.9263V13.5566H78.9833ZM76.758 19.6156C75.5219 19.6156 74.6575 18.6459 74.6575 17.4179C74.6575 16.1898 75.5219 15.2535 76.758 15.2535C77.994 15.2535 78.8657 16.1825 78.8657 17.4179C78.8657 18.6532 77.9773 19.6156 76.758 19.6156Z" fill="white"/>
<path d="M86.32 13.395C85.1645 13.395 84.3327 13.9117 83.9292 14.4532L83.7964 13.5568H81.918V21.3121H83.9858V16.9739C83.9858 15.8997 84.7936 15.3176 85.7067 15.3176C86.6197 15.3176 87.3143 15.899 87.3143 16.9739V21.3121H89.3822V16.4412C89.3822 14.5751 88.1135 13.395 86.32 13.395Z" fill="white"/>
<path d="M92.7832 10.1602L92.2367 11.6103L91.6844 10.1602H90.8867V12.4581H91.4333V10.8293H91.4449L92.0248 12.4581H92.4429L93.0235 10.8293H93.0344V12.4581H93.5809V10.1602H92.7832Z" fill="white"/>
<path d="M88.7168 10.6007H89.386V12.4581H89.9325V10.6007H90.6024V10.1602H88.7168V10.6007Z" fill="white"/>
<path d="M30.4812 10.1602H1.71531C0.634589 10.1602 0.0938649 11.4666 0.857413 12.2309L9.517 20.8905C10.2835 21.6569 11.5253 21.6569 12.291 20.8905L18.3697 14.8119C19.0998 14.0817 20.3489 14.5985 20.3489 15.632V20.0224C20.3489 21.3129 21.9094 21.9596 22.8225 21.0465L31.4262 12.4428C32.2688 11.6002 31.6729 10.1602 30.4812 10.1602Z" fill="white"/>
<path d="M33.543 10.1602H35.5818V18.3582L41.2322 10.1602H42.8667V18.3582L48.5178 10.1602H50.8839L43.1084 21.3122L40.8308 21.3115V14.1311L35.8242 21.3122H33.543V10.1602Z" fill="white"/>
</g>
</g>
</g>
</g>
<defs>
<clipPath id="clip0_3887_657">
<rect width="93" height="30" fill="white" transform="translate(0.5 0.160156)"/>
</clipPath>
<clipPath id="clip1_3887_657">
<rect width="93" height="30" fill="white" transform="translate(0.5 0.160156)"/>
</clipPath>
<clipPath id="clip2_3887_657">
<rect width="93" height="26" fill="white" transform="translate(0.5 2.16016)"/>
</clipPath>
</defs>
</svg>
