<svg width="24" height="25" viewBox="0 0 24 25" fill="none" xmlns="http://www.w3.org/2000/svg">
<path d="M10.5195 13.7056C9.65104 13.7056 8.89111 13.9826 8.23975 14.5366C7.58838 15.0907 7.16536 15.772 6.9707 16.5806H4.27539C4.14062 16.5806 4.02832 16.6255 3.93848 16.7153C3.84863 16.8052 3.80371 16.925 3.80371 17.0747V17.5464C3.80371 17.6812 3.84863 17.7935 3.93848 17.8833C4.02832 17.9731 4.14062 18.0181 4.27539 18.0181H6.9707C7.10547 18.8416 7.51351 19.5267 8.19482 20.0732C8.87614 20.6198 9.65104 20.8931 10.5195 20.8931C11.5228 20.8931 12.38 20.5374 13.0913 19.8262C13.8026 19.1149 14.1582 18.2576 14.1582 17.2544C14.1582 16.2511 13.8026 15.4089 13.0913 14.7275C12.38 14.0462 11.5228 13.7056 10.5195 13.7056ZM10.5195 19.4556C9.93555 19.4556 9.43766 19.2497 9.02588 18.8379C8.6141 18.4261 8.4082 17.9282 8.4082 17.3442C8.4082 16.7752 8.6141 16.2811 9.02588 15.8618C9.43766 15.4425 9.93555 15.2329 10.5195 15.2329C11.0885 15.2329 11.5827 15.4425 12.002 15.8618C12.4212 16.2811 12.6309 16.7752 12.6309 17.3442C12.6309 17.9282 12.4212 18.4261 12.002 18.8379C11.5827 19.2497 11.0885 19.4556 10.5195 19.4556ZM4.27539 8.53955H8.11621C8.26595 8.53955 8.382 8.47966 8.46436 8.35986C8.54671 8.24007 8.58789 8.10531 8.58789 7.95557V7.57373C8.58789 7.43896 8.54671 7.32666 8.46436 7.23682C8.382 7.14697 8.26595 7.10205 8.11621 7.10205H4.27539C4.14062 7.05713 4.02832 7.09082 3.93848 7.20312C3.84863 7.31543 3.80371 7.43896 3.80371 7.57373V8.04541C3.80371 8.15023 3.84863 8.25879 3.93848 8.37109C4.02832 8.4834 4.14062 8.53955 4.27539 8.53955ZM20.582 16.5806H16.7412C16.5915 16.5806 16.4754 16.6255 16.3931 16.7153C16.3107 16.8052 16.2695 16.925 16.2695 17.0747V17.5464C16.2695 17.6812 16.3107 17.7935 16.3931 17.8833C16.4754 17.9731 16.5915 18.0181 16.7412 18.0181H20.582C20.7168 18.0181 20.8291 17.9731 20.9189 17.8833C21.0088 17.7935 21.0537 17.6812 21.0537 17.5464V17.0747C21.0537 16.9699 21.0088 16.8613 20.9189 16.749C20.8291 16.6367 20.7168 16.5806 20.582 16.5806ZM20.582 7.01221H17.8867C17.752 6.18864 17.3439 5.50358 16.6626 4.95703C15.9813 4.41048 15.2064 4.13721 14.3379 4.13721C13.3346 4.13721 12.4774 4.4891 11.7661 5.19287C11.0549 5.89665 10.6992 6.75765 10.6992 7.77588C10.6992 8.77913 11.0549 9.63639 11.7661 10.3477C12.4774 11.0589 13.3346 11.4146 14.3379 11.4146C15.2064 11.4146 15.9663 11.1375 16.6177 10.5835C17.269 10.0295 17.6921 9.34814 17.8867 8.53955H20.582C20.7168 8.53955 20.8291 8.49463 20.9189 8.40479C21.0088 8.31494 21.0537 8.19515 21.0537 8.04541V7.57373C21.0537 7.43896 21.0088 7.31169 20.9189 7.19189C20.8291 7.0721 20.7168 7.01221 20.582 7.01221ZM14.3379 9.88721C13.7689 9.88721 13.2747 9.67757 12.8555 9.2583C12.4362 8.83903 12.2266 8.34489 12.2266 7.77588C12.2266 7.19189 12.4362 6.69401 12.8555 6.28223C13.2747 5.87044 13.7689 5.66455 14.3379 5.66455C14.9219 5.66455 15.4198 5.87044 15.8315 6.28223C16.2433 6.69401 16.4492 7.19189 16.4492 7.77588C16.4492 8.34489 16.2433 8.83903 15.8315 9.2583C15.4198 9.67757 14.9219 9.88721 14.3379 9.88721Z" fill="white"/>
</svg>
