<svg width="35" height="35" viewBox="0 0 35 35" fill="none" xmlns="http://www.w3.org/2000/svg">
<g clip-path="url(#clip0_3113_3643)">
<g clip-path="url(#clip1_3113_3643)">
<path d="M17.5 30.625C24.7487 30.625 30.625 24.7487 30.625 17.5C30.625 10.2513 24.7487 4.375 17.5 4.375C10.2513 4.375 4.375 10.2513 4.375 17.5C4.375 24.7487 10.2513 30.625 17.5 30.625Z" fill="url(#paint0_linear_3113_3643)"/>
<path fill-rule="evenodd" clip-rule="evenodd" d="M10.3318 17.3502C14.1441 15.6784 16.6862 14.5763 17.9582 14.0438C21.5899 12.5234 22.3445 12.2593 22.8364 12.2506C22.9446 12.2487 23.1865 12.2756 23.3432 12.4036C23.4754 12.5116 23.5118 12.6576 23.5292 12.7601C23.5466 12.8625 23.5683 13.0959 23.5511 13.2782C23.3543 15.3595 22.5028 20.4103 22.0696 22.7414C21.8862 23.7277 21.5252 24.0584 21.1758 24.0908C20.4164 24.1611 19.8397 23.5856 19.1042 23.1003C17.9532 22.3409 17.303 21.8683 16.1857 21.1272C14.8946 20.2708 15.7316 19.8002 16.4674 19.031C16.66 18.8296 20.0061 15.7663 20.0708 15.4885C20.0789 15.4537 20.0864 15.3241 20.01 15.2557C19.9334 15.1873 19.8206 15.2107 19.7392 15.2293C19.6238 15.2557 17.7851 16.4789 14.2231 18.899C13.7012 19.2597 13.2285 19.4354 12.8049 19.4262C12.338 19.4161 11.4398 19.1605 10.7721 18.942C9.95319 18.6741 9.30227 18.5324 9.3589 18.0774C9.3885 17.8404 9.71272 17.5979 10.3318 17.3502Z" fill="white"/>
</g>
</g>
<defs>
<linearGradient id="paint0_linear_3113_3643" x1="17.5" y1="4.375" x2="17.5" y2="30.4304" gradientUnits="userSpaceOnUse">
<stop stop-color="#2AABEE"/>
<stop offset="1" stop-color="#229ED9"/>
</linearGradient>
<clipPath id="clip0_3113_3643">
<rect width="35" height="35" fill="white"/>
</clipPath>
<clipPath id="clip1_3113_3643">
<rect width="35" height="35" fill="white"/>
</clipPath>
</defs>
</svg>
