<svg width="36" height="35" viewBox="0 0 36 35" fill="none" xmlns="http://www.w3.org/2000/svg">
<g clip-path="url(#clip0_3113_3654)">
<g clip-path="url(#clip1_3113_3654)">
<path fill-rule="evenodd" clip-rule="evenodd" d="M29.8146 11.7961C29.8245 12.0512 29.8278 12.3061 29.8278 12.5611C29.8278 20.2935 24.3884 29.2201 14.4418 29.2201C11.3863 29.2201 8.54517 28.2463 6.15137 26.5885C6.57452 26.6349 7.00426 26.6697 7.44059 26.6697C9.974 26.6697 12.3073 25.7305 14.1582 24.1539C11.7919 24.1192 9.79375 22.415 9.10465 20.0965C9.4354 20.166 9.77609 20.2009 10.1245 20.2009C10.6159 20.2009 11.0928 20.1314 11.55 19.9923C9.07379 19.459 7.20869 17.0942 7.20869 14.2539C7.20869 14.2192 7.20869 14.2075 7.20869 14.1843C7.93848 14.6132 8.77377 14.8797 9.66075 14.9145C8.20774 13.8595 7.25263 12.0628 7.25263 10.034C7.25263 8.9675 7.5186 7.95886 7.98681 7.08939C10.6532 10.6368 14.6396 12.967 19.1337 13.2104C19.0414 12.7815 18.9941 12.3295 18.9941 11.8774C18.9941 8.64295 21.4154 6.02295 24.4027 6.02295C25.9579 6.02295 27.3626 6.73021 28.3484 7.8663C29.5827 7.61126 30.7389 7.1244 31.7853 6.45202C31.3797 7.81996 30.5235 8.96742 29.4047 9.68619C30.4993 9.54707 31.5435 9.23429 32.5118 8.77054C31.7853 9.94145 30.8708 10.973 29.8146 11.7961Z" fill="#1EA1F2"/>
</g>
</g>
<defs>
<clipPath id="clip0_3113_3654">
<rect width="35" height="35" fill="white" transform="translate(0.980469)"/>
</clipPath>
<clipPath id="clip1_3113_3654">
<rect width="35" height="35" fill="white" transform="translate(0.980469)"/>
</clipPath>
</defs>
</svg>
